<?xml version="1.0" encoding="utf-8"?><svg viewBox="0 0 1200 57" xmlns="http://www.w3.org/2000/svg" xmlns:xlink="http://www.w3.org/1999/xlink"><style>:root>svg{display:none}:root>svg:target{display:block}</style><svg fill="none" viewBox="0 0 1200 57" id="hero_botton_triangle" xmlns="http://www.w3.org/2000/svg"><path d="M249.6 23.7 0 0v57h600L249.6 0v23.7ZM950.4 23.7V0L600 57h599.9V0L950.4 23.7Z" fill="#fff"/></svg><svg fill="none" viewBox="0 0 24 20" id="icon_burger" xmlns="http://www.w3.org/2000/svg"><path d="M24 0H0v4h24V0ZM24 8H0v4h24V8ZM24 16H0v4h24v-4Z" fill="#81B3D2"/></svg><svg fill="none" viewBox="0 0 26 25" id="icon_cross" xmlns="http://www.w3.org/2000/svg"><path d="M26 3.153 22.72 0 13 9.347 3.28 0 0 3.153 9.72 12.5 0 21.847 3.28 25 13 15.653 22.72 25 26 21.847 16.28 12.5 26 3.153Z" fill="#81B3D2"/></svg></svg>