<?xml version="1.0" encoding="utf-8"?><svg viewBox="0 0 26 25" xmlns="http://www.w3.org/2000/svg" xmlns:xlink="http://www.w3.org/1999/xlink"><style>:root>svg{display:none}:root>svg:target{display:block}</style><svg fill="none" viewBox="0 0 23 22" id="menu_burger" xmlns="http://www.w3.org/2000/svg"><path d="M22.9 0H0v4h22.9V0ZM22.9 9H0v4h22.9V9ZM22.9 18H0v4h22.9v-4Z" fill="#81B3D2"/></svg><svg fill="none" viewBox="0 0 26 25" id="menu_cross" xmlns="http://www.w3.org/2000/svg"><path d="m15.933 12.86 9.346 8.987-2.558 2.46-9.374-9.014L13 14.96l-.347.333-9.374 9.013-2.558-2.46 9.346-8.986.375-.36-.375-.36L.721 3.153 3.28.693l9.374 9.014.347.333.347-.333L22.72.694l2.558 2.46-9.346 8.986-.375.36.375.36Z" fill="#fff" stroke="#fff"/></svg></svg>