<?xml version="1.0" encoding="utf-8"?><svg viewBox="0 0 1200 57" xmlns="http://www.w3.org/2000/svg" xmlns:xlink="http://www.w3.org/1999/xlink"><style>:root>svg{display:none}:root>svg:target{display:block}</style><svg fill="none" viewBox="0 0 1200 57" id="hero_botton_triangle" xmlns="http://www.w3.org/2000/svg"><path d="M249.6 23.7 0 0v57h600L249.6 0v23.7ZM950.4 23.7V0L600 57h599.9V0L950.4 23.7Z" fill="#fff"/></svg><svg fill="none" viewBox="0 0 23 22" id="nav_burger" xmlns="http://www.w3.org/2000/svg"><path d="M22.9 0H0v4h22.9V0ZM22.9 9H0v4h22.9V9ZM22.9 18H0v4h22.9v-4Z" fill="#81B3D2"/></svg><svg fill="none" viewBox="0 0 23 23" id="nav_cross" xmlns="http://www.w3.org/2000/svg"><path d="M22.2 2.8 19.4 0l-8.3 8.3L2.8 0 0 2.8l8.3 8.3L0 19.4l2.8 2.8 8.3-8.3 8.3 8.3 2.8-2.8-8.3-8.3 8.3-8.3Z" fill="#fff"/></svg></svg>