<svg version="1.1" id="Layer_1" xmlns="http://www.w3.org/2000/svg" xmlns:xlink="http://www.w3.org/1999/xlink" x="0px"
  y="0px" width="100%" viewBox="0 0 512 512" enable-background="new 0 0 512 512" xml:space="preserve">
  <path fill="#81B3D3" opacity="1.000000" stroke="none"
    d="
M326.000000,513.000000C217.359726,513.000000 109.219444,513.000000 1.039583,513.000000C1.039583,342.401367 1.039583,171.802719 1.039583,1.102037C171.556946,1.102037 342.113983,1.102037 512.835510,1.102037C512.835510,171.666534 512.835510,342.333252 512.835510,513.000000C450.802704,513.000000 388.651337,513.000000 326.000000,513.000000
M303.210602,220.282410C290.095337,216.503906 276.914948,212.934402 263.887268,208.874847C254.910522,206.077621 246.617661,201.850143 240.187454,194.627930C233.414566,187.020859 231.833801,178.312424 237.172134,170.371094C245.392487,158.142395 256.773682,150.472198 271.999512,150.118027C288.813507,149.726913 304.138641,154.935837 318.456818,163.410751C325.301331,167.462036 332.057861,171.661987 339.420563,176.138977C349.375702,154.560349 359.225922,133.209167 369.571625,110.783943C357.344482,105.181732 345.967102,99.247910 334.071228,94.657959C302.432648,82.450409 269.925232,77.764992 236.090454,83.918083C174.094391,95.192505 139.434662,152.530899 146.993927,203.167450C150.893005,229.285812 162.596466,250.319260 186.312698,263.625061C203.615631,273.332703 222.082794,279.817413 241.403091,283.951202C258.139648,287.532227 273.244354,294.257965 286.653503,305.098419C302.063141,317.556152 299.645721,337.331757 291.324341,347.075653C281.917877,358.090088 269.425079,363.567932 255.066910,363.038269C233.282257,362.234680 213.668015,355.224243 197.373993,340.136688C189.205811,332.573334 180.879303,325.180969 172.449539,317.553040C171.834991,318.339722 171.178726,319.057465 170.658829,319.863220C157.653091,340.019897 144.724442,360.226776 131.603119,380.307831C129.535553,383.472015 129.681183,385.223846 132.723022,387.673737C177.914307,424.071136 228.758163,439.953308 286.589874,429.894836C305.221130,426.654358 323.701538,421.869537 338.718140,409.691895C373.793243,381.247742 389.255463,343.966644 383.533966,299.300079C380.131470,272.737549 367.140472,250.570602 344.031982,235.421906C331.815216,227.413239 318.016663,223.679016 303.210602,220.282410z" />
  <path fill="#FFFFFF" opacity="1.000000" stroke="none"
    d="
M303.602722,220.408981C318.016663,223.679016 331.815216,227.413239 344.031982,235.421906C367.140472,250.570602 380.131470,272.737549 383.533966,299.300079C389.255463,343.966644 373.793243,381.247742 338.718140,409.691895C323.701538,421.869537 305.221130,426.654358 286.589874,429.894836C228.758163,439.953308 177.914307,424.071136 132.723022,387.673737C129.681183,385.223846 129.535553,383.472015 131.603119,380.307831C144.724442,360.226776 157.653091,340.019897 170.658829,319.863220C171.178726,319.057465 171.834991,318.339722 172.449539,317.553040C180.879303,325.180969 189.205811,332.573334 197.373993,340.136688C213.668015,355.224243 233.282257,362.234680 255.066910,363.038269C269.425079,363.567932 281.917877,358.090088 291.324341,347.075653C299.645721,337.331757 302.063141,317.556152 286.653503,305.098419C273.244354,294.257965 258.139648,287.532227 241.403091,283.951202C222.082794,279.817413 203.615631,273.332703 186.312698,263.625061C162.596466,250.319260 150.893005,229.285812 146.993927,203.167450C139.434662,152.530899 174.094391,95.192505 236.090454,83.918083C269.925232,77.764992 302.432648,82.450409 334.071228,94.657959C345.967102,99.247910 357.344482,105.181732 369.571625,110.783943C359.225922,133.209167 349.375702,154.560349 339.420563,176.138977C332.057861,171.661987 325.301331,167.462036 318.456818,163.410751C304.138641,154.935837 288.813507,149.726913 271.999512,150.118027C256.773682,150.472198 245.392487,158.142395 237.172134,170.371094C231.833801,178.312424 233.414566,187.020859 240.187454,194.627930C246.617661,201.850143 254.910522,206.077621 263.887268,208.874847C276.914948,212.934402 290.095337,216.503906 303.602722,220.408981z" />
</svg>
