<?xml version="1.0" encoding="UTF-8"?>
<!DOCTYPE svg PUBLIC "-//W3C//DTD SVG 1.1//EN" "http://www.w3.org/Graphics/SVG/1.1/DTD/svg11.dtd">
<svg xmlns="http://www.w3.org/2000/svg" version="1.1" width="32px" height="32px" style="shape-rendering:geometricPrecision; text-rendering:geometricPrecision; image-rendering:optimizeQuality; fill-rule:evenodd; clip-rule:evenodd" xmlns:xlink="http://www.w3.org/1999/xlink">
<g><path style="opacity:1" fill="#82b4d3" d="M -0.5,-0.5 C 10.1667,-0.5 20.8333,-0.5 31.5,-0.5C 31.5,10.1667 31.5,20.8333 31.5,31.5C 20.8333,31.5 10.1667,31.5 -0.5,31.5C -0.5,20.8333 -0.5,10.1667 -0.5,-0.5 Z"/></g>
<g><path style="opacity:1" fill="#f8fbfc" d="M 12.5,4.5 C 16.1669,4.16363 19.5002,4.99697 22.5,7C 22.0019,8.15815 21.1685,8.99148 20,9.5C 16.0269,7.61256 14.5269,8.61256 15.5,12.5C 23.907,14.0726 25.5737,18.2393 20.5,25C 15.6271,27.4651 11.2938,26.7985 7.5,23C 8.6184,21.9264 9.6184,20.7598 10.5,19.5C 11.8745,20.7113 13.3745,21.7113 15,22.5C 16.5,22.3333 17.3333,21.5 17.5,20C 14.6679,17.9815 11.8345,15.8148 9,13.5C 8.33333,11.8333 8.33333,10.1667 9,8.5C 10.3756,7.29493 11.5423,5.9616 12.5,4.5 Z"/></g>
</svg>
