<svg version="1.1" id="Layer_1" xmlns="http://www.w3.org/2000/svg" xmlns:xlink="http://www.w3.org/1999/xlink" x="0px"
  y="0px" width="100%" viewBox="0 0 192 192" enable-background="new 0 0 192 192" xml:space="preserve">
  <path fill="#81B3D3" opacity="1.000000" stroke="none" d="
M131.000000,193.000000C87.361450,193.000000 44.222900,193.000000 1.042176,193.000000C1.042176,129.069824 1.042176,65.139618 1.042176,1.104706C64.888359,1.104706 128.776947,1.104706 192.832764,1.104706C192.832764,64.999641 192.832764,128.999786 192.832764,193.000000C172.473236,193.000000 151.986618,193.000000 131.000000,193.000000
M115.144897,83.410904C108.497475,81.290451 101.580292,79.764908 95.269028,76.903107C86.862007,73.090996 86.449120,65.505486 93.772690,60.135605C100.751205,55.018738 108.049393,56.656864 115.148064,59.585495C119.407463,61.342758 123.338509,63.895897 127.986404,66.397766C131.682831,58.429485 135.292358,50.648499 139.041763,42.566017C126.361137,34.776230 112.950752,30.713869 98.491798,31.122002C82.191452,31.582113 68.678101,37.674232 60.405827,52.630486C50.769989,70.052063 54.201973,94.341759 76.563850,102.396133C81.564056,104.197121 86.737389,105.518906 91.731476,107.335022C96.233757,108.972290 100.775566,110.657089 104.980362,112.915840C110.007416,115.616302 113.176651,119.777695 111.954758,125.993073C110.804626,131.843384 106.546257,134.803589 101.291176,135.955627C92.934761,137.787537 85.063515,135.882675 78.192871,130.818314C73.792404,127.574722 69.767426,123.821732 65.112854,119.909378C60.452259,127.097336 55.992657,134.272125 51.204868,141.220779C49.142761,144.213562 50.038830,145.897385 52.554611,147.766373C66.677666,158.258347 82.363609,163.954681 100.086098,162.858231C119.505447,161.656799 134.627625,154.013885 142.050034,134.601944C150.286362,113.061356 140.712952,87.927330 115.144897,83.410904z" />
  <path fill="#FEFEFF" opacity="1.000000" stroke="none" d="
M115.532806,83.534134C140.712952,87.927330 150.286362,113.061356 142.050034,134.601944C134.627625,154.013885 119.505447,161.656799 100.086098,162.858231C82.363609,163.954681 66.677666,158.258347 52.554611,147.766373C50.038830,145.897385 49.142761,144.213562 51.204868,141.220779C55.992657,134.272125 60.452259,127.097336 65.112854,119.909378C69.767426,123.821732 73.792404,127.574722 78.192871,130.818314C85.063515,135.882675 92.934761,137.787537 101.291176,135.955627C106.546257,134.803589 110.804626,131.843384 111.954758,125.993073C113.176651,119.777695 110.007416,115.616302 104.980362,112.915840C100.775566,110.657089 96.233757,108.972290 91.731476,107.335022C86.737389,105.518906 81.564056,104.197121 76.563850,102.396133C54.201973,94.341759 50.769989,70.052063 60.405827,52.630486C68.678101,37.674232 82.191452,31.582113 98.491798,31.122002C112.950752,30.713869 126.361137,34.776230 139.041763,42.566017C135.292358,50.648499 131.682831,58.429485 127.986404,66.397766C123.338509,63.895897 119.407463,61.342758 115.148064,59.585495C108.049393,56.656864 100.751205,55.018738 93.772690,60.135605C86.449120,65.505486 86.862007,73.090996 95.269028,76.903107C101.580292,79.764908 108.497475,81.290451 115.532806,83.534134z" />
</svg>
