<svg width="25" height="24" viewBox="0 0 25 24" fill="none" xmlns="http://www.w3.org/2000/svg">
<g clip-path="url(#clip0_67136_97)">
<path fill-rule="evenodd" clip-rule="evenodd" d="M24.1331 5.948C24.2991 5.402 24.1331 5 23.3381 5H20.7131C20.0451 5 19.7371 5.347 19.5701 5.73C19.5701 5.73 18.2351 8.926 16.3441 11.002C15.7321 11.604 15.4541 11.795 15.1201 11.795C14.9531 11.795 14.7021 11.604 14.7021 11.057V5.948C14.7021 5.292 14.5181 5 13.9621 5H9.83411C9.41711 5 9.16611 5.304 9.16611 5.593C9.16611 6.214 10.1121 6.358 10.2091 8.106V11.904C10.2091 12.737 10.0561 12.888 9.72211 12.888C8.8321 12.888 6.66711 9.677 5.38211 6.003C5.13311 5.288 4.88111 5 4.21011 5H1.58311C0.833105 5 0.683105 5.347 0.683105 5.73C0.683105 6.412 1.57311 9.8 4.82811 14.281C6.99811 17.341 10.0531 19 12.8361 19C14.5051 19 14.7111 18.632 14.7111 17.997V15.684C14.7111 14.947 14.8691 14.8 15.3981 14.8C15.7881 14.8 16.4551 14.992 18.0131 16.467C19.7931 18.216 20.0861 19 21.0881 19H23.7131C24.4631 19 24.8391 18.632 24.6231 17.904C24.3851 17.18 23.5351 16.129 22.4081 14.882C21.7961 14.172 20.8781 13.407 20.5991 13.024C20.2101 12.533 20.3211 12.314 20.5991 11.877C20.5991 11.877 23.7991 7.451 24.1321 5.948H24.1331Z" fill="white"/>
</g>
<defs>
<clipPath id="clip0_67136_97">
<rect width="24" height="24" fill="white" transform="translate(0.683105)"/>
</clipPath>
</defs>
</svg>
